<svg xmlns="http://www.w3.org/2000/svg" width="256" height="256" viewBox="0 0 24 24" fill="none">
  <g stroke="#000000" stroke-width="1.4" stroke-linejoin="round" transform="translate(-3.7295,-3.7295) scale(1.3238)">
    <!-- dot -->
    <path stroke-dasharray="11" stroke-dashoffset="11"
      d="M8.14703 6.41176C8.14858 6.18929 8.10629 5.96869 8.02258 5.76255C7.93888 5.55642 7.81539 5.36879 7.65916 5.21039C7.50294 5.05198 7.31705 4.92589 7.1121 4.83933C6.90715 4.75277 6.68715 4.70742 6.46468 4.70588H6.41173C5.95931 4.70588 5.52541 4.88561 5.20549 5.20552C4.88558 5.52544 4.70585 5.95934 4.70585 6.41176C4.70585 6.86419 4.88558 7.29809 5.20549 7.61801C5.52541 7.93792 5.95931 8.11765 6.41173 8.11765C6.63423 8.12312 6.85562 8.0847 7.06325 8.00458C7.27089 7.92447 7.46071 7.80422 7.62186 7.65072C7.78301 7.49722 7.91234 7.31346 8.00245 7.10996C8.09256 6.90646 8.14169 6.6872 8.14703 6.46471V6.41176Z">
      <animate fill="freeze" attributeName="stroke-dashoffset" dur="0.2s" values="11;0"/>
    </path>
    <!-- i stem -->
    <rect x="4.94115" y="9.64706" width="2.94117" height="9.41174" rx="0.4"
      stroke-dasharray="25" stroke-dashoffset="25">
      <animate fill="freeze" attributeName="stroke-dashoffset" begin="0.25s" dur="0.2s" values="25;0"/>
    </rect>
    <!-- n -->
    <path stroke-dasharray="51" stroke-dashoffset="51"
      d="M19.0588 13.3412C19.0588 10.5118 17.2588 9.41177 15.4706 9.41177C14.8851 9.38245 14.3021 9.50715 13.7798 9.77345C13.2576 10.0397 12.8142 10.4383 12.4941 10.9294H12.4117V9.64706H9.64703V19.0588H12.5882V14.0529C12.5457 13.5403 12.7072 13.0315 13.0376 12.6372C13.368 12.2429 13.8407 11.9949 14.3529 11.9471H14.4647C15.4 11.9471 16.0941 12.5353 16.0941 14.0176V19.0588H19.0353L19.0588 13.3412Z">
      <animate fill="freeze" attributeName="stroke-dashoffset" begin="0.5s" dur="0.4s" values="51;0"/>
    </path>
  </g>
</svg>
